<svg width="1680" height="250" viewBox="0 0 1680 250" fill="none" xmlns="http://www.w3.org/2000/svg">
<g clip-path="url(#clip0_387_49)">
<rect width="1680" height="250" fill="#0A0A0B"/>
<g filter="url(#filter0_f_387_49)">
<path d="M448.037 491.497C483.872 537.128 1331.42 153.781 1331.42 153.781C1331.42 153.781 1750.77 -114.02 1639.29 -247.459C1527.82 -380.898 1232.86 -344.173 1059.43 -295.214C882.106 -136.807 412.202 445.867 448.037 491.497Z" fill="#0F2150"/>
</g>
<g filter="url(#filter1_f_387_49)">
<path d="M771.111 298.39C806.487 376.302 1258.81 50.0595 1359.31 -25.653C1459.81 -101.365 1313.27 -240.669 1212.77 -164.957C1112.27 -89.244 735.735 220.479 771.111 298.39Z" fill="#4455A0"/>
</g>
</g>
<defs>
<filter id="filter0_f_387_49" x="196.096" y="-589.799" width="1712.05" height="1335.07" filterUnits="userSpaceOnUse" color-interpolation-filters="sRGB">
<feFlood flood-opacity="0" result="BackgroundImageFix"/>
<feBlend mode="normal" in="SourceGraphic" in2="BackgroundImageFix" result="shape"/>
<feGaussianBlur stdDeviation="125" result="effect1_foregroundBlur_387_49"/>
</filter>
<filter id="filter1_f_387_49" x="618.774" y="-336.814" width="924.267" height="797.138" filterUnits="userSpaceOnUse" color-interpolation-filters="sRGB">
<feFlood flood-opacity="0" result="BackgroundImageFix"/>
<feBlend mode="normal" in="SourceGraphic" in2="BackgroundImageFix" result="shape"/>
<feGaussianBlur stdDeviation="75" result="effect1_foregroundBlur_387_49"/>
</filter>
<clipPath id="clip0_387_49">
<rect width="1680" height="250" fill="white"/>
</clipPath>
</defs>
</svg>
