<svg width="24" height="24" viewBox="0 0 24 24" fill="none" xmlns="http://www.w3.org/2000/svg">
<path d="M6.59507 17.405C6.74155 17.5516 6.93323 17.6248 7.12525 17.6248C7.31726 17.6248 7.50895 17.5516 7.65543 17.405L12.0002 13.0601L16.345 17.405C16.4915 17.5515 16.6832 17.6246 16.8752 17.6246C17.0672 17.6246 17.2589 17.5515 17.4054 17.4048C17.6982 17.112 17.6982 16.6372 17.4054 16.3443L13.0606 11.9994L17.4054 7.65453C17.6982 7.36173 17.6982 6.88696 17.4054 6.59399C17.1126 6.30119 16.6378 6.30119 16.3449 6.59399L12.0001 10.9389L7.65525 6.59399C7.36246 6.30119 6.88769 6.30119 6.59472 6.59399C6.30193 6.88679 6.30193 7.36156 6.59472 7.65453L10.9395 11.9994L6.59472 16.3443C6.30176 16.6371 6.30176 17.1118 6.59472 17.4046L6.59507 17.405Z" fill="#555556"/>
<path d="M12 24C15.205 24 18.2185 22.7516 20.4848 20.485C22.7517 18.2186 24 15.205 24 12.0001C24 8.79529 22.7516 5.78157 20.4848 3.51528C18.2187 1.24835 15.2053 0 12 0C8.79475 0 5.7815 1.24839 3.51523 3.51498C1.24833 5.7814 0 8.79499 0 11.9998C0 15.2047 1.24837 18.2184 3.51523 20.4847C5.78128 22.7517 8.79475 24 12 24ZM4.57594 4.57582C6.55904 2.59252 9.19546 1.50013 12 1.50013C14.8045 1.50013 17.4411 2.59248 19.4241 4.57582C21.4073 6.55895 22.4997 9.1954 22.4997 12C22.4997 14.8046 21.4074 17.4411 19.4241 19.4241C17.441 21.4074 14.8045 22.4998 12 22.4998C9.19546 22.4998 6.55892 21.4075 4.57594 19.4241C2.59266 17.441 1.50028 14.8046 1.50028 12C1.50028 9.1954 2.59262 6.55883 4.57594 4.57582V4.57582Z" fill="#555556"/>
</svg>
